# Blender 4.0.2
# www.blender.org
mtllib star.mtl
o star
v -0.977454 -1.278299 -0.226197
v -0.569645 -0.239140 -0.226197
v -1.449612 0.571255 -0.226197
v -0.252634 0.558319 -0.226197
v 0.163518 1.591848 -0.226197
v 0.603759 0.503251 -0.226197
v 1.632641 0.373053 -0.226197
v 0.816024 -0.328242 -0.226197
v 0.927483 -1.400796 -0.226197
v 0.090821 -0.787065 -0.226197
v -0.059854 0.017024 0.000000
v -0.059662 0.016541 -0.446274
v -0.977454 -1.278299 -0.226197
v -0.569645 -0.239140 -0.226197
v -1.449612 0.571255 -0.226197
v -0.252634 0.558319 -0.226197
v 0.163518 1.591848 -0.226197
v 0.603759 0.503251 -0.226197
v 1.632641 0.373053 -0.226197
v 0.816024 -0.328242 -0.226197
v 0.927483 -1.400796 -0.226197
v 0.090821 -0.787065 -0.226197
v -0.059854 0.017024 0.000000
v -0.059662 0.016541 -0.446274
v -0.977454 -1.278299 -0.226197
v -0.569645 -0.239140 -0.226197
v -1.449612 0.571255 -0.226197
v -0.252634 0.558319 -0.226197
v 0.163518 1.591848 -0.226197
v 0.603759 0.503251 -0.226197
v 1.632641 0.373053 -0.226197
v 0.816024 -0.328242 -0.226197
v 0.927483 -1.400796 -0.226197
v 0.090821 -0.787065 -0.226197
v -0.059854 0.017024 0.000000
v -0.059662 0.016541 -0.446274
vn -0.4752 0.1865 0.8599
vn -0.2643 -0.2870 0.9207
vn 0.0042 0.3868 0.9221
vn -0.4735 0.1907 0.8599
vn 0.2530 0.1023 0.9621
vn 0.0466 0.3683 0.9285
vn 0.1708 -0.1989 0.9650
vn 0.2599 0.0270 0.9653
vn -0.2218 -0.3023 0.9270
vn 0.1145 -0.2491 0.9617
vn 0.1117 -0.2430 -0.9636
vn -0.2167 -0.2954 -0.9305
vn 0.2534 0.0263 -0.9670
vn 0.1666 -0.1940 -0.9668
vn 0.0455 0.3594 -0.9321
vn 0.2466 0.0997 -0.9640
vn -0.4636 0.1867 -0.8661
vn 0.0041 0.3776 -0.9260
vn -0.2583 -0.2805 -0.9244
vn -0.4653 0.1826 -0.8661
vt 0.375000 0.312500
vt 0.500000 0.688440
vt 0.400000 0.312500
vt 0.425000 0.312500
vt 0.450000 0.312500
vt 0.475000 0.312500
vt 0.500000 0.312500
vt 0.525000 0.312500
vt 0.550000 0.312500
vt 0.575000 0.312500
vt 0.600000 0.312500
vt 0.625000 0.312500
vt 0.626409 0.064409
vt 0.500000 0.156250
vt 0.656250 0.156250
vt 0.626409 0.248091
vt 0.548284 0.304853
vt 0.451716 0.304853
vt 0.373591 0.248091
vt 0.343750 0.156250
vt 0.373591 0.064409
vt 0.451716 0.007647
vt 0.548284 0.007647
s 0
usemtl initialShadingGroup
f 1/1/1 11/2/1 2/3/1
f 2/3/2 11/2/2 3/4/2
f 3/4/3 11/2/3 4/5/3
f 4/5/4 11/2/4 5/6/4
f 5/6/5 11/2/5 6/7/5
f 6/7/6 11/2/6 7/8/6
f 7/8/7 11/2/7 8/9/7
f 8/9/8 11/2/8 9/10/8
f 9/10/9 11/2/9 10/11/9
f 10/11/10 11/2/10 1/12/10
f 1/13/11 12/14/11 10/15/11
f 10/15/12 12/14/12 9/16/12
f 9/16/13 12/14/13 8/17/13
f 8/17/14 12/14/14 7/18/14
f 7/18/15 12/14/15 6/19/15
f 6/19/16 12/14/16 5/20/16
f 5/20/17 12/14/17 4/21/17
f 4/21/18 12/14/18 3/22/18
f 3/22/19 12/14/19 2/23/19
f 2/23/20 12/14/20 1/13/20
f 13/1/1 23/2/1 14/3/1
f 14/3/2 23/2/2 15/4/2
f 15/4/3 23/2/3 16/5/3
f 16/5/4 23/2/4 17/6/4
f 17/6/5 23/2/5 18/7/5
f 18/7/6 23/2/6 19/8/6
f 19/8/7 23/2/7 20/9/7
f 20/9/8 23/2/8 21/10/8
f 21/10/9 23/2/9 22/11/9
f 22/11/10 23/2/10 13/12/10
f 13/13/11 24/14/11 22/15/11
f 22/15/12 24/14/12 21/16/12
f 21/16/13 24/14/13 20/17/13
f 20/17/14 24/14/14 19/18/14
f 19/18/15 24/14/15 18/19/15
f 18/19/16 24/14/16 17/20/16
f 17/20/17 24/14/17 16/21/17
f 16/21/18 24/14/18 15/22/18
f 15/22/19 24/14/19 14/23/19
f 14/23/20 24/14/20 13/13/20
f 25/1/1 35/2/1 26/3/1
f 26/3/2 35/2/2 27/4/2
f 27/4/3 35/2/3 28/5/3
f 28/5/4 35/2/4 29/6/4
f 29/6/5 35/2/5 30/7/5
f 30/7/6 35/2/6 31/8/6
f 31/8/7 35/2/7 32/9/7
f 32/9/8 35/2/8 33/10/8
f 33/10/9 35/2/9 34/11/9
f 34/11/10 35/2/10 25/12/10
f 25/13/11 36/14/11 34/15/11
f 34/15/12 36/14/12 33/16/12
f 33/16/13 36/14/13 32/17/13
f 32/17/14 36/14/14 31/18/14
f 31/18/15 36/14/15 30/19/15
f 30/19/16 36/14/16 29/20/16
f 29/20/17 36/14/17 28/21/17
f 28/21/18 36/14/18 27/22/18
f 27/22/19 36/14/19 26/23/19
f 26/23/20 36/14/20 25/13/20
